<?xml version="1.0" encoding="UTF-8" standalone="no"?>
<!DOCTYPE svg PUBLIC "-//W3C//DTD SVG 1.1//EN" "http://www.w3.org/Graphics/SVG/1.1/DTD/svg11.dtd">
<svg width="100%" height="100%" viewBox="0 0 2000 2000" version="1.1" xmlns="http://www.w3.org/2000/svg" xmlns:xlink="http://www.w3.org/1999/xlink" xml:space="preserve" xmlns:serif="http://www.serif.com/" style="fill-rule:evenodd;clip-rule:evenodd;stroke-linejoin:round;stroke-miterlimit:2;">
    <g transform="matrix(1.05207,0,0,1.04882,-76.5135,-44.6003)">
        <path d="M235.51,637.354C185.985,538.09 165.702,427.231 184.471,300.887C186.726,286.869 193.412,275.866 207.368,270.111C288.758,252.317 401.375,253.957 478.189,278.3C442.945,308.125 401.747,348.941 365.247,401.834C470.303,279.399 587.078,187.164 790.953,176.629C779.415,195.471 768.866,218.496 763.464,244.159C814.475,153.177 874.649,91.291 947.396,52.479C967.751,40.463 988.798,38.006 1009.55,52.479C1272.55,244.159 1419.24,611.413 1218.03,857.144C1257.1,830.366 1272.88,809.882 1289.97,784.181C1654.49,1026.5 1533.22,1360.85 1501.83,1445.97C1578.87,1289.69 1622.18,994.818 1402.7,756.11C1328.62,674.457 1333.02,569.343 1430,510C1517.63,454.053 1610.13,471.859 1709.14,588.183C1721.96,603.211 1733.34,619.413 1743.13,636.577C1815.12,762.663 1872.52,900.283 1868.73,1099.64C1848.6,1538.74 1531.81,1893.81 998.232,1893.81C843.64,1899.35 730.976,1874.2 630.224,1821.04C333.915,1845.88 278.196,1787.33 271.305,1711.85C274.749,1677.34 282.119,1642.95 347.335,1610.47C342.045,1466.11 391.043,1382.51 427.653,1352.52C417.208,1365.66 430.914,1495.47 522.477,1593.3C425.304,1435.52 411.576,1272.84 500.972,1104.09C427.653,1107.32 172.832,1018.8 235.51,797.939C225.404,735.127 230.305,649.679 252.436,600.496C243.815,612.66 239.128,621.029 235.51,637.354ZM680.763,1570.28C687.299,1567.9 694.024,1565.76 700.916,1563.89C716.706,1559.61 733.377,1556.71 750.679,1555.42C765.835,1554.29 780.695,1554.44 795.071,1555.77C777.246,1550.66 758.146,1547.76 738.262,1547.48C724.501,1547.29 711.081,1548.36 698.167,1550.57C694.745,1531.95 692.957,1512.78 692.957,1493.18C692.957,1318.39 835.238,1176.49 1010.49,1176.49C1061,1176.49 1108.78,1188.28 1151.19,1209.25C1104.66,1181.03 1050.79,1164.9 993.409,1164.9C817.425,1164.9 674.548,1316.61 674.548,1503.48C674.548,1520.99 675.802,1538.18 678.219,1554.98C607.88,1574.16 556.857,1627.98 555.959,1692.01C555.744,1707.33 558.415,1722.15 563.559,1736.12C562.461,1731.02 561.705,1725.83 561.31,1720.54C556.513,1656.27 606.465,1597.35 680.763,1570.28Z" style="fill:white;"/>
    </g>
</svg>
