<?xml version="1.0" encoding="UTF-8"?>
<svg xmlns="http://www.w3.org/2000/svg" xmlns:xlink="http://www.w3.org/1999/xlink" width="1000px" height="1000px" viewBox="0 0 1000 1000" version="1.1">
<g id="surface1">
<path style=" stroke:none;fill-rule:evenodd;fill:rgb(0%,0%,0%);fill-opacity:1;" d="M 499.957031 130.832031 C 223.832031 130.832031 0 357.832031 0 638 L 0 880.832031 L 92.167969 880.832031 L 92.167969 856.667969 C 92.167969 743 182.917969 650.917969 294.917969 650.917969 C 406.917969 650.917969 497.667969 743 497.667969 856.625 L 497.667969 880.832031 L 589.832031 880.832031 L 589.832031 856.667969 C 589.832031 691.375 457.75 557.5 294.917969 557.5 C 233.800781 557.425781 174.21875 576.644531 124.667969 612.417969 C 175 510.917969 278.625 441.25 398.332031 441.25 C 567.375 441.25 704.457031 580.332031 704.457031 751.792969 L 704.457031 880.832031 L 796.625 880.832031 L 796.625 751.792969 C 796.625 528.667969 618.292969 347.707031 398.292969 347.707031 C 303.023438 347.652344 210.976562 382.179688 139.25 444.875 C 207.667969 313.667969 343.5 224.292969 500 224.292969 C 725.25 224.292969 907.832031 409.542969 907.832031 638.042969 L 907.832031 880.832031 L 1000 880.832031 L 1000 638 C 999.957031 357.832031 776.125 130.832031 499.957031 130.832031 Z M 499.957031 130.832031 "/>
</g>
</svg>
