<?xml version="1.0" encoding="UTF-8" standalone="no"?>
<!DOCTYPE svg PUBLIC "-//W3C//DTD SVG 1.1//EN" "http://www.w3.org/Graphics/SVG/1.1/DTD/svg11.dtd">
<svg width="100%" height="100%" viewBox="0 0 1000 1000" version="1.1" xmlns="http://www.w3.org/2000/svg" xmlns:xlink="http://www.w3.org/1999/xlink" xml:space="preserve" xmlns:serif="http://www.serif.com/" style="fill-rule:evenodd;clip-rule:evenodd;stroke-linejoin:round;stroke-miterlimit:2;">
    <g transform="matrix(1.06555,0,0,1.06555,-31.4934,-23.9582)">
        <path d="M426.747,662.026C343.064,683.987 247.721,706.422 174.783,734.498C157.815,741.029 142.243,749.653 127.982,759.793C141.403,746.215 156.355,733.292 173.027,721.46C238.174,675.227 300.928,668.557 367.908,665.04C387.135,664.03 406.699,663.279 426.747,662.026Z"/>
        <path d="M248.528,658.282C305.908,624.247 369.2,601.359 433.486,591.235C541.837,574.173 649.308,566.938 763.017,508.344C594.542,633.203 478.66,636.531 377.716,641.188C332.813,643.259 290.773,645.721 248.528,658.282Z"/>
        <path d="M154.659,697.322C134.037,715.438 115.851,735.017 99.828,755.187C68.512,789.744 45.861,827.468 29.556,862.604C49.02,789.112 90.297,696.219 177.201,612.466C266.177,526.717 375.308,488.364 482.363,459.722C592.302,430.309 700.171,410.908 783.555,363.808C899.245,298.46 948.107,207.206 968.035,132.217L968.003,133.516C964.51,204.063 944.655,295.138 881.811,386.254C857.817,415.591 827.507,442.855 789.386,466.337C664.272,543.407 547.477,549.374 429.813,567.903C330.238,583.583 232.941,628.545 154.659,697.322Z"/>
        <path d="M544.475,394.778C498.167,416.488 460.415,434.73 429.596,450.108C334.281,478.757 239.947,519.19 160.812,595.458C119.203,635.558 87.61,677.672 63.637,718.941C87.033,666.996 120.772,614.491 169.297,568.071C259.97,481.329 336.277,452.7 423.09,428.389C460.948,417.788 500.754,407.986 544.475,394.778Z"/>
        <path d="M946.504,120.844C928.673,191.945 883.271,280.354 771.938,343.241C708.921,378.837 631.606,398.105 550.11,418.226C560.209,413.484 570.727,408.572 581.679,403.484C663.784,365.347 715.703,335.881 749.444,311.447C764.442,303.628 779.852,295.234 795.764,286.118C875.901,240.213 921.076,176.466 946.504,120.844Z"/>
    </g>
</svg>
