<?xml version="1.0" encoding="UTF-8" standalone="no"?>
<!DOCTYPE svg PUBLIC "-//W3C//DTD SVG 1.1//EN" "http://www.w3.org/Graphics/SVG/1.1/DTD/svg11.dtd">
<svg width="100%" height="100%" viewBox="0 0 1000 1000" version="1.1" xmlns="http://www.w3.org/2000/svg" xmlns:xlink="http://www.w3.org/1999/xlink" xml:space="preserve" xmlns:serif="http://www.serif.com/" style="fill-rule:evenodd;clip-rule:evenodd;stroke-linejoin:round;stroke-miterlimit:2;">
    <g transform="matrix(1.5625,0,0,1.5625,-281.25,-281.25)">
        <path d="M205.536,267.392C199.502,265.645 192.998,266.838 187.976,270.612C182.954,274.387 180,280.303 180,286.584C180,370.611 180,629.852 180,713.609C180,719.866 182.931,725.762 187.92,729.539C192.909,733.316 199.379,734.538 205.401,732.84C246.61,721.224 326.311,698.758 354.972,690.678C361.235,688.913 365.561,683.199 365.561,676.692L365.561,324.638C365.561,318.168 361.285,312.478 355.07,310.679C326.524,302.416 246.831,279.346 205.536,267.392Z"/>
        <path d="M407.634,318.238C402.168,316.888 398.322,311.992 398.306,306.362C398.289,300.731 402.106,295.812 407.564,294.43C503.604,270.113 717.93,215.845 793.223,196.78C799.652,195.152 806.473,196.582 811.706,200.656C816.939,204.729 820,210.99 820,217.622C820,320.276 820,679.177 820,782.172C820,788.831 816.914,795.114 811.645,799.186C806.375,803.257 799.517,804.657 793.073,802.976C717.362,783.225 501.924,727.024 406.484,702.126C401.058,700.711 397.282,695.798 397.311,690.19C397.34,684.583 401.165,679.709 406.605,678.349C466.938,663.266 569.817,637.546 616.145,625.964C630.165,622.459 640,609.862 640,595.411C640,548.595 640,447.16 640,400.289C640,385.804 630.12,373.187 616.058,369.714C569.951,358.327 468.063,333.163 407.634,318.238Z"/>
    </g>
</svg>
