<?xml version="1.0" encoding="UTF-8"?>
<svg xmlns="http://www.w3.org/2000/svg" xmlns:xlink="http://www.w3.org/1999/xlink" width="1000px" height="1000px" viewBox="0 0 1000 1000" version="1.1">
<g id="surface1">
<path style=" stroke:none;fill-rule:nonzero;fill:rgb(0%,0%,0%);fill-opacity:1;" d="M 916.667969 552.082031 C 916.667969 580.972656 911.109375 608.054688 900 633.332031 C 889.167969 658.332031 874.304688 680.277344 855.417969 699.167969 C 836.527344 718.054688 814.445312 733.054688 789.167969 744.167969 C 763.890625 755 736.945312 760.417969 708.332031 760.417969 C 690.554688 760.417969 672.917969 758.195312 655.417969 753.75 C 652.917969 776.804688 646.527344 798.195312 636.25 817.917969 C 625.695312 837.917969 612.222656 855.277344 595.832031 870 C 579.722656 884.722656 561.25 896.109375 540.417969 904.167969 C 519.304688 912.5 497.222656 916.667969 474.167969 916.667969 C 448.890625 916.667969 425.140625 911.804688 402.917969 902.082031 C 380.972656 892.640625 361.667969 879.722656 345 863.332031 C 328.609375 846.945312 315.695312 827.640625 306.25 805.417969 C 296.527344 783.195312 291.667969 759.582031 291.667969 734.582031 L 291.667969 721.25 C 292.5 717.082031 293.195312 712.777344 293.75 708.332031 L 117.917969 708.332031 C 108.75 708.332031 100.554688 705 93.332031 698.332031 C 86.667969 691.109375 83.332031 682.917969 83.332031 673.75 L 83.332031 326.25 C 83.332031 317.082031 86.667969 308.890625 93.332031 301.667969 C 100.554688 295 108.75 291.667969 117.917969 291.667969 L 240.832031 291.667969 C 244.167969 262.222656 252.640625 234.445312 266.25 208.332031 C 279.582031 183.609375 296.804688 161.945312 317.917969 143.332031 C 338.75 124.445312 362.5 109.722656 389.167969 99.167969 C 415.832031 88.609375 444.167969 83.332031 474.167969 83.332031 C 506.390625 83.332031 536.667969 89.445312 565 101.667969 C 593.609375 114.167969 618.472656 130.972656 639.582031 152.082031 C 660.695312 173.195312 677.5 198.054688 690 226.667969 C 702.222656 255 708.332031 285.417969 708.332031 317.917969 L 708.332031 330.832031 C 708.332031 335 707.777344 339.304688 706.667969 343.75 C 735.554688 343.75 762.640625 349.167969 787.917969 360 C 813.472656 370.832031 835.554688 385.695312 854.167969 404.582031 C 873.890625 423.195312 889.167969 445.140625 900 470.417969 C 911.109375 495.972656 916.667969 523.195312 916.667969 552.082031 M 473.75 135.417969 C 451.25 135.417969 429.859375 139.445312 409.582031 147.5 C 389.027344 155.277344 370.554688 166.109375 354.167969 180 C 338.609375 193.890625 325.417969 210.277344 314.582031 229.167969 C 304.027344 248.609375 297.082031 269.445312 293.75 291.667969 L 465.417969 291.667969 C 474.582031 291.667969 482.777344 295.140625 490 302.082031 C 496.667969 309.027344 500 317.082031 500 326.25 L 500 497.917969 L 507.5 496.667969 C 512.222656 479.445312 519.167969 463.054688 528.332031 447.5 C 537.222656 431.667969 548.195312 417.5 561.25 405 C 573.75 392.5 588.054688 381.527344 604.167969 372.082031 C 619.167969 362.917969 635.417969 355.972656 652.917969 351.25 C 655.140625 339.304688 656.25 328.195312 656.25 317.917969 C 656.25 292.640625 651.390625 268.890625 641.667969 246.667969 C 632.222656 224.722656 619.167969 205.554688 602.5 189.167969 C 586.109375 172.777344 566.945312 159.722656 545 150 C 522.777344 140.277344 499.027344 135.417969 473.75 135.417969 M 295.832031 635.417969 C 308.332031 635.417969 320.832031 634.167969 333.332031 631.667969 C 345 629.167969 355.554688 624.859375 365 618.75 C 374.445312 612.917969 382.082031 605.140625 387.917969 595.417969 C 393.195312 585.417969 395.832031 573.195312 395.832031 558.75 C 395.832031 544.027344 393.054688 531.804688 387.5 522.082031 C 381.390625 512.359375 373.75 504.167969 364.582031 497.5 C 355.417969 491.109375 345.554688 485.832031 335 481.667969 L 305 469.582031 C 296.109375 465.972656 288.472656 462.222656 282.082031 458.332031 C 275.972656 454.167969 272.917969 448.890625 272.917969 442.5 C 272.917969 438.054688 274.582031 434.304688 277.917969 431.25 C 281.25 428.472656 285.140625 426.390625 289.582031 425 C 294.027344 423.054688 298.609375 421.804688 303.332031 421.25 C 308.332031 420.972656 312.5 420.832031 315.832031 420.832031 C 329.445312 420.832031 341.667969 422.5 352.5 425.832031 C 363.054688 429.445312 374.027344 434.722656 385.417969 441.667969 L 385.417969 380 C 378.472656 378.054688 372.359375 376.390625 367.082031 375 C 361.527344 373.609375 356.109375 372.5 350.832031 371.667969 C 345.277344 370.832031 339.445312 370.140625 333.332031 369.582031 C 327.777344 369.304688 321.527344 369.167969 314.582031 369.167969 C 302.640625 369.167969 290.417969 370.417969 277.917969 372.917969 C 265.417969 375.695312 254.027344 380.140625 243.75 386.25 C 234.027344 392.640625 225.832031 400.417969 219.167969 409.582031 C 212.777344 419.304688 209.582031 431.25 209.582031 445.417969 C 209.582031 459.304688 212.640625 470.554688 218.75 479.167969 C 224.859375 488.890625 232.5 497.082031 241.667969 503.75 C 250.832031 510.140625 260.554688 515.832031 270.832031 520.832031 L 300.832031 532.917969 C 310.277344 536.804688 318.054688 540.832031 324.167969 545 C 330.277344 549.445312 333.332031 554.722656 333.332031 560.832031 C 333.332031 566.109375 331.804688 570.277344 328.75 573.332031 C 325.972656 576.390625 322.359375 578.609375 317.917969 580 C 314.304688 582.222656 309.859375 583.332031 304.582031 583.332031 L 291.667969 583.332031 C 275.277344 583.332031 260.832031 580.832031 248.332031 575.832031 C 235.554688 570.277344 222.777344 563.054688 210 554.167969 L 210 619.167969 C 237.5 630 266.109375 635.417969 295.832031 635.417969 M 473.75 864.582031 C 491.25 864.582031 508.054688 861.109375 524.167969 854.167969 C 540 847.5 553.890625 838.332031 565.832031 826.667969 C 577.5 814.722656 586.804688 800.832031 593.75 785 C 600.695312 769.167969 604.167969 752.359375 604.167969 734.582031 C 604.167969 719.027344 601.527344 704.167969 596.25 690 C 591.25 675.832031 584.167969 663.195312 575 652.082031 C 565.554688 640.695312 554.445312 631.109375 541.667969 623.332031 C 529.167969 615.554688 515.277344 610 500 606.667969 L 500 673.75 C 500 682.917969 496.667969 691.109375 490 698.332031 C 482.777344 705 474.582031 708.332031 465.417969 708.332031 L 346.25 708.332031 C 344.582031 716.945312 343.75 725.695312 343.75 734.582031 C 343.75 752.359375 347.222656 769.167969 354.167969 785 C 360.832031 800.832031 370 814.722656 381.667969 826.667969 C 393.609375 838.332031 407.5 847.5 423.332031 854.167969 C 439.167969 861.109375 455.972656 864.582031 473.75 864.582031 M 708.332031 708.332031 C 729.722656 708.332031 749.859375 704.304688 768.75 696.25 C 787.917969 688.195312 804.582031 676.945312 818.75 662.5 C 832.917969 648.332031 844.167969 631.804688 852.5 612.917969 C 860.554688 594.027344 864.582031 573.75 864.582031 552.082031 C 864.582031 531.25 860.554688 511.109375 852.5 491.667969 C 844.167969 472.5 832.917969 455.832031 818.75 441.667969 C 804.582031 427.5 787.917969 416.25 768.75 407.917969 C 749.859375 399.859375 729.722656 395.832031 708.332031 395.832031 C 686.945312 395.832031 666.804688 400 647.917969 408.332031 C 629.027344 416.667969 612.5 427.917969 598.332031 442.082031 C 584.167969 456.25 572.917969 472.777344 564.582031 491.667969 C 556.25 511.109375 552.082031 531.25 552.082031 552.082031 L 552.082031 560.832031 L 552.917969 570 C 565.695312 576.109375 577.5 583.609375 588.332031 592.5 C 598.890625 601.390625 608.609375 611.25 617.5 622.082031 C 625.832031 633.195312 633.054688 645.140625 639.167969 657.917969 C 645 670.695312 649.445312 683.890625 652.5 697.5 C 670.832031 704.722656 689.445312 708.332031 708.332031 708.332031 Z M 708.332031 708.332031 "/>
</g>
</svg>
