<svg enable-background="new 0 0 25.09 31.86" viewBox="0 0 25.09 31.86" xmlns="http://www.w3.org/2000/svg">
    <g fill="black">
        <ellipse cx="12.54" cy="2.37" rx="9.77" ry="2.37" />
        <path
            d="m14.05 15.36c-.16-.2-.36-.36-.59-.47s-.5-.17-.81-.17-.58.06-.81.17-.43.27-.58.47c-.16.2-.28.44-.36.72s-.12.59-.12.92.04.64.12.92.2.52.36.72.35.36.58.47.5.17.81.17c.3 0 .57-.06.81-.17.23-.11.43-.27.59-.47s.28-.44.36-.72.12-.59.12-.92-.04-.64-.12-.92-.2-.52-.36-.72z" />
        <path
            d="m12.54 6.25c-5.94 0-10.96-1.07-12.54-2.53v24.63c0 1.94 5.62 3.51 12.54 3.51 6.93 0 12.54-1.57 12.54-3.51v-24.63c-1.58 1.46-6.59 2.53-12.54 2.53zm-4.34 13.05c-.12.27-.3.51-.54.71-.23.2-.52.36-.85.48s-.71.17-1.14.17c-.39 0-.78-.04-1.17-.13-.39-.08-.75-.21-1.08-.37l.35-1.33c.25.12.53.22.84.31s.65.13 1.01.13c.3 0 .54-.05.73-.16s.29-.29.29-.54c0-.18-.08-.34-.25-.48-.17-.15-.47-.3-.91-.46-.69-.26-1.2-.56-1.52-.9s-.48-.77-.48-1.29c0-.69.22-1.21.67-1.57s1.07-.54 1.87-.54c.4 0 .79.04 1.16.13s.68.2.93.35l-.3 1.31c-.24-.12-.51-.22-.8-.29s-.6-.11-.91-.11c-.26 0-.47.04-.63.13s-.24.24-.24.45c0 .1.01.18.04.26.03.07.08.14.15.2s.18.13.31.19.3.14.51.22c.3.12.58.25.84.38s.49.29.68.47.34.38.45.61.17.49.17.8-.06.6-.18.87zm7.4 3.16-2.74-1.82c-.03.01-.06.01-.08.02s-.07.01-.12.01c-.57 0-1.09-.1-1.54-.29-.45-.2-.83-.46-1.14-.79s-.54-.72-.7-1.16c-.16-.45-.24-.93-.24-1.43s.08-.98.24-1.42.39-.83.7-1.16.69-.6 1.14-.79c.45-.2.96-.29 1.54-.29.57 0 1.08.1 1.53.29s.82.46 1.13.79.54.72.71 1.16c.16.44.24.92.24 1.42 0 .65-.13 1.25-.4 1.79s-.65.98-1.15 1.3l1.7 1.13zm6.07-1.92h-4.35v-7.08h1.74v5.7h2.6v1.38z" />
    </g>
</svg>