<?xml version="1.0" encoding="UTF-8"?>
<svg xmlns="http://www.w3.org/2000/svg" xmlns:xlink="http://www.w3.org/1999/xlink" width="1000px" height="1000px" viewBox="0 0 1000 1000" version="1.1">
<g id="surface1">
<path style=" stroke:none;fill-rule:nonzero;fill:rgb(0%,0%,0%);fill-opacity:1;" d="M 839.0625 377.304688 C 887.226562 377.304688 926.289062 338.28125 926.289062 290.117188 C 926.289062 241.953125 887.226562 202.890625 839.0625 202.890625 C 790.898438 202.890625 751.875 241.953125 751.875 290.117188 C 751.875 338.28125 790.898438 377.304688 839.0625 377.304688 Z M 839.0625 377.304688 "/>
<path style=" stroke:none;fill-rule:nonzero;fill:rgb(0%,0%,0%);fill-opacity:1;" d="M 792.578125 783.203125 C 798.164062 783.90625 803.867188 784.296875 809.6875 784.296875 L 810.3125 784.296875 C 885.078125 784.296875 945.664062 723.710938 945.664062 648.945312 L 945.664062 452.890625 C 945.664062 432.539062 929.179688 416.054688 908.828125 416.054688 L 803.90625 416.054688 C 809.84375 427.304688 813.125 440.15625 812.890625 453.75 L 812.890625 676.484375 C 813.710938 714.335938 806.40625 750.46875 792.578125 783.203125 Z M 792.578125 783.203125 "/>
<path style=" stroke:none;fill-rule:nonzero;fill:rgb(0%,0%,0%);fill-opacity:1;" d="M 717.070312 747.65625 C 690.78125 722.96875 674.335938 687.890625 674.335938 648.984375 L 674.335938 457.734375 L 729.570312 457.734375 L 729.570312 677.929688 C 730.15625 702.539062 725.664062 726.132812 717.070312 747.65625 Z M 717.070312 747.65625 "/>
<path style=" stroke:none;fill-rule:nonzero;fill:rgb(0%,0%,0%);fill-opacity:1;" d="M 580.351562 376.328125 C 643.984375 370 693.710938 316.289062 693.710938 250.976562 C 693.710938 181.40625 637.304688 125 567.734375 125 C 498.164062 125 441.757812 181.40625 441.757812 250.976562 C 441.757812 253.359375 441.835938 255.742188 441.953125 258.125 L 503.164062 258.125 C 545.78125 258.125 580.351562 292.695312 580.351562 335.3125 Z M 580.351562 376.328125 "/>
<path style=" stroke:none;fill-rule:nonzero;fill:rgb(0%,0%,0%);fill-opacity:1;" d="M 496.992188 355.234375 L 496.992188 341.445312 L 480.117188 341.445312 C 485.3125 346.523438 490.976562 351.132812 496.992188 355.234375 Z M 496.992188 355.234375 "/>
<path style=" stroke:none;fill-rule:nonzero;fill:rgb(0%,0%,0%);fill-opacity:1;" d="M 344.84375 684.492188 C 344.804688 681.992188 344.804688 679.492188 344.882812 676.953125 L 344.882812 632.34375 L 364.570312 632.34375 L 364.570312 444.84375 L 437.5 444.84375 L 437.5 416.054688 L 496.992188 416.054688 L 496.992188 684.492188 Z M 344.84375 684.492188 "/>
<path style=" stroke:none;fill-rule:nonzero;fill:rgb(0%,0%,0%);fill-opacity:1;" d="M 362.304688 767.8125 L 503.164062 767.8125 C 545.78125 767.8125 580.351562 733.242188 580.351562 690.625 L 580.351562 416.054688 L 735.703125 416.054688 C 755.820312 416.5625 771.71875 433.242188 771.25 453.320312 L 771.25 676.953125 C 774.023438 797.539062 678.632812 897.617188 558.046875 900.585938 C 469.726562 898.398438 394.882812 844.101562 362.304688 767.8125 Z M 362.304688 767.8125 "/>
<path style=" stroke:none;fill-rule:evenodd;fill:rgb(0%,0%,0%);fill-opacity:1;" d="M 503.164062 299.804688 L 147.851562 299.804688 C 128.242188 299.804688 112.304688 315.703125 112.304688 335.3125 L 112.304688 690.625 C 112.304688 710.234375 128.242188 726.132812 147.851562 726.132812 L 503.164062 726.132812 C 522.773438 726.132812 538.671875 710.234375 538.671875 690.625 L 538.671875 335.3125 C 538.671875 315.703125 522.773438 299.804688 503.164062 299.804688 Z M 229.179688 444.84375 L 302.070312 444.84375 L 302.070312 632.34375 L 343.75 632.34375 L 343.75 444.84375 L 416.679688 444.84375 L 416.679688 403.164062 L 229.179688 403.164062 Z M 229.179688 444.84375 "/>
</g>
</svg>
